<svg width="24" height="24" viewBox="0 0 24 24" fill="none" xmlns="http://www.w3.org/2000/svg">
<path d="M21.3729 16.68C20.8554 17.8294 20.606 18.3431 19.9404 19.3575C19.0085 20.775 17.6941 22.545 16.0704 22.5562C14.6248 22.5694 14.2517 21.6131 12.2885 21.63C10.3273 21.6394 9.91852 22.575 8.47103 22.56C6.8454 22.545 5.60228 20.9512 4.6704 19.5356C2.06415 15.5662 1.78853 10.9125 3.39915 8.43748C4.53915 6.68248 6.34103 5.65123 8.03415 5.65123C9.75915 5.65123 10.8429 6.59811 12.2679 6.59811C13.6516 6.59811 14.4935 5.64936 16.4885 5.64936C17.996 5.64936 19.5898 6.47061 20.7298 7.88811C17.0023 9.93186 17.6079 15.255 21.3729 16.68ZM14.9735 4.06498C15.6992 3.1331 16.2504 1.81873 16.0498 0.47998C14.8667 0.560606 13.4829 1.31623 12.6748 2.29498C11.9417 3.18748 11.3342 4.51123 11.5704 5.79186C12.8623 5.83311 14.1992 5.06248 14.9735 4.06498Z" fill="#9E9E9E"/>
</svg>
