<svg width="140" height="147" viewBox="0 0 140 147" fill="none" xmlns="http://www.w3.org/2000/svg">
<g filter="url(#filter0_f_2411_1960)">
<ellipse cx="69.6473" cy="76.5412" rx="20.1473" ry="19.9865" fill="#FFEF76" fill-opacity="0.8"/>
</g>
<path d="M73.3427 57.7778C80.4879 51.7959 88.2183 47.9781 94.8861 46.5897C101.623 45.1871 106.872 46.3178 109.66 49.5948C112.447 52.8718 112.689 58.1952 110.163 64.547C107.662 70.8341 102.569 77.7521 95.4241 83.734C88.2788 89.7161 80.5478 93.5344 73.8799 94.9227C67.1437 96.3252 61.8949 95.1938 59.1072 91.917C56.3194 88.6401 56.0775 83.3172 58.6034 76.9654C61.1037 70.6782 66.1973 63.7598 73.3427 57.7778Z" stroke="#A5D6A7" stroke-width="3"/>
<path d="M34.0207 59.8854C28.6077 47.9014 25.8044 36.1971 25.5997 26.9965C25.4974 22.3932 26.0473 18.492 27.1862 15.5159C28.322 12.5477 29.9979 10.6028 32.1065 9.6653C34.2153 8.72789 36.7946 8.78143 39.7838 9.91607C42.7809 11.0538 46.0818 13.2431 49.4769 16.3828C56.2626 22.6581 63.2022 32.5237 68.6153 44.5077C74.0285 56.4919 76.8321 68.1968 77.0367 77.3975C77.1391 82.0008 76.5891 85.902 75.4503 88.8781C74.3143 91.8465 72.6379 93.7917 70.5291 94.7291C68.4203 95.6663 65.8416 95.6125 62.8527 94.4779C59.8556 93.3402 56.5546 91.1509 53.1595 88.0112C46.3738 81.7358 39.4339 71.8696 34.0207 59.8854Z" stroke="#A5D6A7" stroke-width="3"/>
<defs>
<filter id="filter0_f_2411_1960" x="0" y="7.05469" width="139.294" height="138.973" filterUnits="userSpaceOnUse" color-interpolation-filters="sRGB">
<feFlood flood-opacity="0" result="BackgroundImageFix"/>
<feBlend mode="normal" in="SourceGraphic" in2="BackgroundImageFix" result="shape"/>
<feGaussianBlur stdDeviation="24.75" result="effect1_foregroundBlur_2411_1960"/>
</filter>
</defs>
</svg>
